<svg width="102" height="22" viewBox="0 0 102 22" fill="none" xmlns="http://www.w3.org/2000/svg">
<path d="M0 0.0334005H3.13598V18.535H10.6712V21.6077H0V0.0334005Z" fill="black"/>
<path d="M25.2734 0.0334005H28.3945V13.3866C28.3945 15.1627 28.0725 16.699 27.4284 17.9957C26.7943 19.2814 25.9075 20.273 24.768 20.9703C23.6286 21.6568 22.3009 22 20.7849 22C19.2788 22 17.9511 21.6568 16.8018 20.9703C15.6524 20.273 14.7557 19.2814 14.1117 17.9957C13.4676 16.699 13.1456 15.1627 13.1456 13.3866V0.0334005H16.2667V13.2068C16.2667 14.3836 16.4599 15.3915 16.8464 16.2305C17.2427 17.0695 17.7777 17.7124 18.4515 18.1591C19.1352 18.6059 19.913 18.8292 20.7849 18.8292C21.6568 18.8292 22.4297 18.6059 23.1035 18.1591C23.7772 17.7124 24.3073 17.0695 24.6937 16.2305C25.0802 15.3915 25.2734 14.3836 25.2734 13.2068V0.0334005Z" fill="black"/>
<path d="M32.2425 0.0334005H47.0306L36.3891 18.535H46.3915V21.6077H30.8603L41.5166 3.10611H32.2425V0.0334005Z" fill="black"/>
<path d="M55.8756 0.0334005H59.0711L66.4726 21.6077H63.1434L61.5234 16.6718H53.4382L51.8033 21.6077H48.4593L55.8756 0.0334005ZM54.4488 13.6154H60.5127L57.4956 4.21751H57.451L54.4488 13.6154Z" fill="black"/>
<path d="M71.2348 13.8442L64.5764 0.0334005H68.3664L72.7954 9.8726L77.2095 0.0334005H80.9846L74.3559 13.8442V21.6077H71.2348V13.8442Z" fill="black"/>
<path d="M86.1319 0.000382939L87.6102 4.30955C87.6102 4.30955 89.5798 9.9738 91.1068 13.6032C91.5384 14.0665 91.9363 14.6135 92.1009 14.885C92.8451 16.1127 92.8451 16.6642 92.8451 16.6642H83.6907L82.0533 21.6077H78.7042L86.1319 0.000382939ZM84.7029 13.6032C84.7029 13.6032 88.4444 13.6032 91.1068 13.6032C89.5798 9.9738 87.6102 4.30955 87.6102 4.30955L84.7029 13.6032Z" fill="black"/>
<path d="M87.0694 0.000374275L88.9478 0C88.9478 0 90.3226 3.25901 90.9492 5.41987C91.5488 7.48752 91.2577 8.3306 92.1345 10.3835C93.0642 12.5601 94.8202 13.965 95.6017 16.2109C96.307 18.2378 96.8103 21.607 96.8103 21.607L94.9318 21.6073C94.9318 21.6073 94.4285 18.2382 93.7232 16.2113C92.9417 13.9654 91.2089 12.9929 90.2793 10.8163C89.4025 8.76342 89.6703 7.48789 89.0707 5.42024C88.4441 3.25939 87.0694 0.000374275 87.0694 0.000374275Z" fill="black"/>
<path d="M90.0121 0.00058948L91.5437 0.000374275C91.5437 0.000374275 93.1365 3.25896 93.7631 5.41985C94.3626 7.48753 93.8972 8.33038 94.7741 10.3833C95.7038 12.5598 97.5517 13.9649 98.3331 16.2107C99.0384 18.2376 99.5714 21.607 99.5714 21.607L97.9432 21.6072C97.9432 21.6072 97.4402 18.2379 96.735 16.211C95.9535 13.9651 94.2201 12.9929 93.2904 10.8163C92.4135 8.76344 92.6817 7.48777 92.0822 5.42009C91.4556 3.25921 90.0121 0.00058948 90.0121 0.00058948Z" fill="black"/>
<path d="M92.7309 0.000748456L94.0728 0.000374275C94.0728 0.000374275 95.5112 3.25901 96.1378 5.41987C96.7374 7.48752 96.45 8.3306 97.3268 10.3835C98.2564 12.5601 100.009 13.965 100.79 16.2109C101.496 18.2378 102 21.607 102 21.607L100.659 21.6073C100.659 21.6073 100.156 18.2382 99.4507 16.2113C98.6693 13.9654 96.9364 12.9929 96.0068 10.8163C95.13 8.76342 95.3978 7.48789 94.7982 5.42024C94.1716 3.25939 92.7309 0.000748456 92.7309 0.000748456Z" fill="black"/>
</svg>
