<svg width="41" height="41" viewBox="0 0 41 41" fill="none" xmlns="http://www.w3.org/2000/svg">
<path d="M0 20.5C0 9.17816 9.17816 0 20.5 0C31.8218 0 41 9.17816 41 20.5C41 31.8218 31.8218 41 20.5 41C9.17816 41 0 31.8218 0 20.5Z" fill="#D9D9D9"/>
<path d="M10 11.0278H12.8728V26.4403H17.2767L16.4436 29H10V11.0278Z" fill="#201F1F"/>
<path d="M20.1366 11.0003L21.4909 14.59C21.4909 14.59 23.2951 19.3085 24.694 22.3319C25.0894 22.7179 25.4539 23.1736 25.6047 23.3997C26.2865 24.4224 26.2865 24.8819 26.2865 24.8819H17.9002L16.4003 29H13.3321L20.1366 11.0003ZM18.8275 22.3319C18.8275 22.3319 22.255 22.3319 24.694 22.3319C23.2951 19.3085 21.4909 14.59 21.4909 14.59L18.8275 22.3319Z" fill="#201F1F"/>
<path d="M20.9954 11.0003L22.7162 11C22.7162 11 23.9756 13.7149 24.5496 15.5149C25.0989 17.2374 24.8323 17.9397 25.6355 19.6498C26.4871 21.463 28.0958 22.6333 28.8117 24.5042C29.4578 26.1927 29.9189 28.9994 29.9189 28.9994L28.198 28.9997C28.198 28.9997 27.737 26.193 27.0909 24.5045C26.375 22.6336 24.7876 21.8235 23.936 20.0104C23.1327 18.3002 23.3781 17.2377 22.8288 15.5153C22.2548 13.7152 20.9954 11.0003 20.9954 11.0003Z" fill="#201F1F"/>
<path d="M23.6912 11.0005L25.0943 11.0003C25.0943 11.0003 26.5534 13.7148 27.1274 15.5149C27.6766 17.2374 27.2503 17.9395 28.0535 19.6496C28.9052 21.4628 30.5981 22.6332 31.3139 24.5041C31.96 26.1926 32.4483 28.9994 32.4483 28.9994L30.9568 28.9995C30.9568 28.9995 30.496 26.1928 29.8499 24.5043C29.134 22.6334 27.5461 21.8235 26.6944 20.0104C25.8911 18.3003 26.1367 17.2376 25.5875 15.5151C25.0136 13.715 23.6912 11.0005 23.6912 11.0005Z" fill="#201F1F"/>
<path d="M26.1818 11.0006L27.4111 11.0003C27.4111 11.0003 28.7288 13.7149 29.3028 15.5149C29.8521 17.2374 29.5888 17.9397 30.3921 19.6498C31.2437 21.463 32.849 22.6333 33.5649 24.5042C34.211 26.1927 34.6731 28.9994 34.6731 28.9994L33.4449 28.9997C33.4449 28.9997 32.9839 26.193 32.3378 24.5046C31.6219 22.6336 30.0345 21.8235 29.1829 20.0104C28.3796 18.3002 28.625 17.2377 28.0757 15.5153C27.5017 13.7152 26.1818 11.0006 26.1818 11.0006Z" fill="#201F1F"/>
</svg>
